<?xml version="1.0" encoding="UTF-8"?>
<svg id="Layer_1" xmlns="http://www.w3.org/2000/svg" version="1.1" viewBox="0 0 433.86 129.09">
  <!-- Generator: Adobe Illustrator 30.0.0, SVG Export Plug-In . SVG Version: 2.1.1 Build 123)  -->
  <defs>
    <style>
      .st0 {
        fill: #fff;
      }

      .st1 {
        fill: #d65696;
      }
    </style>
  </defs>
  <g>
    <path class="st0" d="M37.91,89.9c1.11-2.26,3.64-7.4,2.55-11.47-7.51,5.45-16.62,6.28-21.44,6.28-1.25,0-2.5-.05-3.72-.16-7.03-.63-15.12-4.04-14.78-11.57.26-5.69,6.06-11.57,15.32-11.57h.24c7.38.09,15.43,3.35,20.68,8.35,7.31-9.05,13.7-18.18,21.6-29.9,9.73-14.12,15.52-24.9,15.87-29.56.08-1.14-.29-2.12-1.13-3.02-2.99-3.19-11.47-4.33-18.42-4.33-1.37,0-2.67.05-3.64.13-13.97,1.11-28.71,9.73-28.53,23.55.09,6.8,4.53,11.43,11.32,11.79.27.02.54.02.8.02,8.59,0,13.84-8.53,14.43-16.56l.06-.85,7.69,5.09-.16.38c-5.2,12.33-15.69,14.17-21.47,14.17-.5,0-1-.01-1.5-.04-12.02-.58-20.52-7.14-20.65-15.94C12.84,14.31,24.44,2.88,50.73.79c2.28-.19,4.56-.29,6.78-.29,9.31,0,25.67,1.78,30.51,13.68,3.19,8.04-.28,21.38-3.64,34.28-1.62,6.23-3.17,12.19-3.9,17.28,3.09-7.56,9.45-19.11,13.38-26.02,12.92-22.67,23.89-33.23,34.51-33.23.15,0,.3,0,.44,0,2.07,0,5.1.51,7.17,1.65l.48.27-4.8,7.04-.05-1.53c-.09-2.7-1.24-4.58-2.84-4.66-.65,0-2.03.29-3.63,2.25-3.73,5.22-11.38,17.48-19.02,30.48-9.2,15.62-15.89,28.13-17.89,33.46-1.21,3.21-1.09,4.66-.78,5.31.16.33.41.55.78.67.18.07.34.1.51.1,1.27,0,2.99-1.67,4.38-4.25l.65-1.2,1.38,6.47-.21.19c-1.01.91-3.19,1.46-5.83,1.46-.96,0-1.92-.08-2.77-.22-2.58-.38-4.66-1.63-6.17-3.73-5.81-8.07-2.36-27.32.42-42.79,1.46-8.13,2.85-15.88,2.22-19.16-1.25,6.17-5.39,14.37-12.86,25.58-9.61,14.43-20.04,27.06-27.35,33.1,1.26,2.41,3.11,6.76,2.87,11.11l-.02.33-8.31,3.06.77-1.59ZM18.19,66.96c-.5,0-1,0-1.49.03-8.12.39-11.84,4.36-11.85,7.88-.01,3.29,3.27,6.79,10.62,7.19.34.02.68.03,1.02.03,8.21,0,14.3-5.46,18.73-10.38-4.19-3.02-10.36-4.74-17.03-4.74Z"/>
    <path class="st1" d="M57.51,1c12.75,0,25.92,3.22,30.05,13.36,5.08,12.8-7.25,40.07-7.98,55.39,1.66-5.89,8.19-18.31,14.71-29.8,9.53-16.72,21.39-32.98,34.08-32.98.14,0,.29,0,.43,0,2.18,0,5.08.56,6.94,1.59l-3.63,5.32c-.1-2.99-1.45-5.04-3.32-5.14-1.14,0-2.59.65-4.04,2.43-3.94,5.51-11.71,18.03-19.07,30.55-7.98,13.55-15.65,27.46-17.93,33.54-1.87,4.95-.83,6.26.31,6.63.22.08.44.13.67.13,1.54,0,3.38-1.83,4.82-4.52l1.04,4.86c-1.02.92-3.27,1.33-5.5,1.33-.93,0-1.86-.07-2.69-.21-20.52-2.99,1.55-61.47-3.83-66.88-.93,7.38-6.63,17.38-13.06,27-9.64,14.48-20.31,27.37-27.56,33.26,1.76,3.27,3.21,7.38,3,11.21l-6.84,2.52c1.04-2.15,4.35-8.31,2.59-12.98-6.42,4.91-14.62,6.6-21.71,6.6-1.27,0-2.5-.05-3.68-.15-21.66-1.95-16.53-22.14.49-22.14.08,0,.16,0,.24,0,7.77.09,15.85,3.74,20.72,8.59,7.05-8.69,13.16-17.28,21.97-30.36,8.5-12.33,15.54-24.38,15.96-29.8.43-6.53-12.57-7.89-20.05-7.89-1.5,0-2.78.05-3.68.13C17.93,5.21,14.51,37.9,33.78,38.93c.28.02.55.02.83.02,8.84,0,14.32-8.69,14.92-17.03l6.63,4.39c-4.21,9.98-12.5,13.86-21.01,13.86-.49,0-.98-.01-1.48-.04C4.87,38.75,3.83,5.02,50.77,1.29c2.2-.18,4.46-.29,6.74-.29M16.49,82.59c8.09,0,14.3-5.14,19.47-10.96-4.52-3.47-11.19-5.17-17.76-5.17-.5,0-1.01.01-1.51.03C.93,67.24,0,81.72,15.44,82.56c.35.02.7.03,1.05.03M57.51,0v1S57.51,0,57.51,0c-2.23,0-4.52.1-6.82.29C24.08,2.41,12.34,14.08,12.5,24.72c.14,9.08,8.83,15.83,21.13,16.43.51.03,1.02.04,1.53.04,10.2,0,17.99-5.14,21.93-14.47l.32-.76-.69-.46-6.63-4.39-1.43-.94-.12,1.71c-.56,7.8-5.64,16.1-13.93,16.1-.25,0-.51,0-.77-.02-6.51-.35-10.77-4.78-10.85-11.3-.06-5.04,2.36-10.3,6.65-14.42,3.59-3.44,10.22-7.74,21.42-8.62.97-.08,2.24-.13,3.6-.13,6.84,0,15.17,1.1,18.05,4.17.74.79,1.06,1.65,1,2.65-.35,4.57-6.1,15.25-15.78,29.3-7.77,11.54-14.08,20.55-21.24,29.45-5.34-4.87-13.3-8.03-20.62-8.12h-.25s0,0,0,0c-5.58,0-9.21,2-11.28,3.69C1.8,66.82.15,69.87,0,72.96c-.13,2.97,1.13,5.76,3.55,7.87,2.66,2.31,6.7,3.77,11.68,4.22,1.24.1,2.51.16,3.77.16,4.76,0,13.61-.8,21.11-5.93.6,3.77-1.64,8.33-2.66,10.41l-.23.48-1.08,2.23,2.32-.86,6.84-2.52.62-.23.04-.66c.23-4.25-1.47-8.49-2.74-11.01,7.32-6.17,17.64-18.69,27.14-32.96,6.27-9.38,10.2-16.68,12.06-22.47-.24,4.03-1.33,10.1-2.33,15.69-2.79,15.56-6.27,34.93-.33,43.17,1.59,2.21,3.78,3.53,6.51,3.93.86.14,1.85.22,2.84.22,1.32,0,4.57-.15,6.17-1.59l.43-.39-.12-.56-1.04-4.86-.57-2.66-1.29,2.4c-1.48,2.76-3.05,3.99-3.94,3.99-.11,0-.21-.02-.3-.06h-.03s-.03-.02-.03-.02c-.25-.08-.39-.2-.49-.41-.22-.46-.41-1.71.8-4.92,1.99-5.31,8.67-17.79,17.85-33.38,7.62-12.97,15.25-25.2,19-30.45,1.07-1.29,2.25-2.04,3.25-2.04,1.26.06,2.23,1.78,2.32,4.17l.11,3.05,1.72-2.53,3.63-5.32.62-.91-.96-.53c-2.15-1.18-5.28-1.71-7.43-1.71-.12,0-.28,0-.43,0-14.21,0-26.75,19.11-34.95,33.49-3.32,5.85-8.37,15-11.74,22.28.82-4.07,1.98-8.54,3.18-13.16,3.38-12.98,6.87-26.4,3.62-34.59C83.53,1.82,66.95,0,57.51,0h0ZM16.49,81.59c-.33,0-.66,0-.99-.03-7.02-.38-10.15-3.63-10.14-6.69.01-3.4,3.92-7.03,11.38-7.38.48-.02.97-.03,1.46-.03,6.32,0,12.18,1.57,16.27,4.33-4.33,4.73-10.2,9.8-17.98,9.8h0Z"/>
  </g>
  <g>
    <path class="st0" d="M106.69,76.54c-.71,0-1.45-.04-2.2-.12-5.9-.7-9.76-4.46-10.08-9.81-.52-8.26,8.43-20.76,17.41-24.31,2.03-.82,4.47-1.28,6.87-1.28,4.91,0,10.48,1.96,11.42,7.45,1.17,7.29-4.07,15.56-7.74,19.78.55.1,1.1.15,1.63.15,1.71,0,3.33-.5,4.95-1.54-.07-2.73.72-5.83,2.19-8.55,3.4-6.32,7.62-13.45,9.86-16.94l.15-.23h13.69l-.45.75c-1.93,3.26-3.39,5.64-4.81,7.94-1.65,2.69-3.37,5.47-5.86,9.72-2.63,4.12-5.05,9.37-3.98,11.83.34.78,1.02,1.25,2.08,1.44.16.03.33.04.51.04h0c5.19,0,15.49-11.76,19.01-21.7,1.32-3.72,2.22-8.7-.96-11.28-1.9-1.53-2.64-3.41-2.02-5.18.6-1.72,2.35-2.87,4.35-2.87,1.66,0,3.29.81,4.58,2.28,2.72,3.62,1.78,10.65-2.54,19.31-5.65,11.31-16.23,23-24.15,23-7.44,0-10.2-3.42-11.17-6.53-1.64.84-3.33,1.25-5.15,1.25-1.29,0-2.65-.21-4.06-.64-3.22,3.02-7.35,6.03-13.53,6.03ZM112.7,54.6c-2.78,3.95-7.6,11.34-6.3,15.38.37,1.15,1.21,1.93,2.56,2.39.42.15.86.23,1.34.23,2.54,0,5.39-2.05,7.12-3.54-4.37-3.22-5.51-9.16-4.72-14.46ZM122.55,45.69c-2.49,0-4.77,2.34-5.73,4.64-2.11,4.92-2.62,13.27,2.65,16.81,5.51-6.54,8.62-14.16,7.41-18.23-.46-1.55-1.54-2.58-3.2-3.05-.37-.11-.75-.17-1.13-.17Z"/>
    <path class="st1" d="M162.72,32.34c1.37,0,2.89.61,4.2,2.11,6.94,9.25-13.37,41.48-26.32,41.48-6.79,0-9.93-2.98-10.85-6.77-1.64.95-3.44,1.5-5.47,1.5-1.3,0-2.69-.22-4.19-.7-3.61,3.42-7.63,6.1-13.4,6.1-.69,0-1.4-.04-2.14-.12-5.49-.65-9.33-4.11-9.64-9.34-.52-8.22,8.6-20.46,17.1-23.82,1.97-.8,4.34-1.24,6.69-1.24,5.07,0,10.08,2.06,10.93,7.03,1.14,7.1-4.04,15.51-8.19,19.99.89.24,1.75.35,2.57.35,2.02,0,3.82-.68,5.46-1.77-.14-2.89.74-6.02,2.12-8.58,3.32-6.17,7.56-13.36,9.84-16.91h12.54c-4.14,7.01-6.01,9.72-10.67,17.66-1.55,2.43-7.88,12.89-1.55,14.01.19.03.39.05.59.05,8.16,0,27.36-26.58,18.37-33.87-4.02-3.22-1.47-7.16,2.02-7.16M119.57,67.8c7.15-8.31,11.71-20.27,4.25-22.42-.43-.13-.85-.19-1.27-.19-2.65,0-5.12,2.37-6.19,4.95-2.28,5.32-2.69,14.11,3.21,17.66M110.3,73.1c2.54,0,5.52-1.91,7.93-4.08-5.49-3.55-6.01-11.21-4.56-16.63-2.59,3.64-13.16,17.66-4.87,20.46.48.17.98.25,1.5.25M162.72,31.34c-2.21,0-4.15,1.29-4.82,3.2-.69,1.98.1,4.07,2.18,5.74,2.95,2.39,2.06,7.15.8,10.73-3.13,8.82-13.24,21.36-18.54,21.36-.15,0-.29-.01-.42-.04-1.17-.21-1.54-.75-1.71-1.15-1-2.28,1.49-7.54,3.93-11.34,2.51-4.28,4.22-7.05,5.88-9.74,1.42-2.3,2.89-4.69,4.81-7.95l.89-1.51h-14.84l-.3.46c-2.25,3.5-6.48,10.64-9.88,16.97-1.46,2.7-2.27,5.77-2.25,8.51-1.46.88-2.92,1.31-4.45,1.31-.22,0-.44,0-.66-.03,3.67-4.46,8.4-12.4,7.26-19.48-.99-5.81-6.8-7.88-11.91-7.88-2.46,0-4.97.47-7.07,1.32-9.14,3.62-18.25,16.37-17.72,24.81.33,5.6,4.36,9.54,10.52,10.27.77.08,1.53.12,2.26.12,6.22,0,10.4-2.96,13.66-5.97,1.36.38,2.68.58,3.93.58,1.71,0,3.31-.35,4.86-1.06,2.05,5.48,7.96,6.34,11.46,6.34,4.91,0,9.98-4.05,13.36-7.45,4.25-4.27,8.35-10.04,11.24-15.83,4.41-8.83,5.33-16.05,2.52-19.8l-.02-.03-.02-.03c-1.39-1.58-3.15-2.45-4.95-2.45h0ZM119.39,66.47c-4.64-3.52-4.09-11.29-2.11-15.93.9-2.16,3-4.34,5.27-4.34.33,0,.66.05.98.15,1.52.44,2.45,1.33,2.87,2.72,1.15,3.85-1.78,11.07-7.01,17.41h0ZM110.3,72.1c-.42,0-.8-.07-1.15-.19-1.22-.41-1.96-1.09-2.27-2.07-1.06-3.31,2.46-9.34,5.13-13.33-.27,4.69,1,9.58,4.62,12.57-2.37,1.93-4.63,3.02-6.33,3.02h0Z"/>
  </g>
  <g>
    <path class="st0" d="M258.93,37.28c-4,0-7.13-2.89-7.13-6.57s3.13-6.67,7.13-6.67,7.34,2.93,7.34,6.67-3.22,6.57-7.34,6.57Z"/>
    <path class="st1" d="M258.93,24.55c3.83,0,6.84,2.71,6.84,6.17s-3,6.07-6.84,6.07-6.63-2.71-6.63-6.07,2.9-6.17,6.63-6.17M258.93,23.55c-4.28,0-7.63,3.15-7.63,7.17s3.35,7.07,7.63,7.07,7.84-3.11,7.84-7.07-3.44-7.17-7.84-7.17h0Z"/>
  </g>
  <g>
    <path class="st0" d="M272.26,128.59c-1.49,0-3.02-.05-4.55-.14-11.19-.68-20.13-5.65-24.07-13.32-3.32,1.99-7.19,3.05-11.24,3.05h-.59c-7.43,0-13.89-3.89-15.72-9.47-1.54-4.7.6-9.62,5.87-13.48l.22-.16,13.13,5.04-1.78.31c-5.04.88-7.64,4.99-7.6,8.6.03,2.77,1.69,5.97,6.25,6.67h.18c3.25,0,5.76-1.32,7.28-3.81,1.92-3.16,1.97-8.05.11-11.62-3.12-6.22-11.02-11.2-20.66-13.03-11.4,18.12-28.64,39.57-46.36,39.57-.25,0-.49,0-.74-.01-5.13-.16-9.1-1.97-11.48-5.25-2.4-3.29-3.05-8-1.73-12.58,5.04-17.21,29.05-26.52,49.21-26.61l1.97-3.25c1.75-2.88,3.34-5.5,5.14-8.53-2.85,3.07-6.45,5.91-10.83,5.91-.27,0-.54-.01-.81-.03-2.5-.19-4.43-1.26-5.61-3.12-2.7,2.1-5.36,3.12-8.11,3.12h-.24c-3.42-.05-6.17-1.31-7.73-3.54-1.06-1.52-1.48-3.37-1.24-5.36-3.93,4.83-8.27,8.92-13.35,8.92-.24,0-.47,0-.71-.03-2.79-.21-4.86-1.52-5.99-3.78-2.1-4.22-.72-11.42,3.43-17.91,3.35-5.09,10.65-13.62,22-13.62.41,0,.83.01,1.25.04,2.19.18,4.75,1.22,5.85,3.12l1.82-3.12h14.05l-.5.77c-1.62,2.51-3.09,4.76-4.46,6.88-3.24,4.99-6.04,9.29-9.11,14.23-2.62,4.3-2.66,6.21-2.24,7.07.27.55.85.86,1.76.95.05,0,.11,0,.16,0,.59,0,1.33-.29,2.2-.87-.75-4.31.88-10.18,4.31-15.45,3.34-5.09,10.63-13.62,21.9-13.62.41,0,.82.01,1.24.04,2.33.18,4.85,1.21,5.88,3.1l1.89-3.11h13.61l-.47.76c-4.53,7.3-8.62,14.81-12.58,22.08-3.54,6.5-6.89,12.66-10.41,18.41,10.96.87,20.4,4.58,25.52,10.03,1.88-1.99,4.15-3.75,6.73-5.26,7.5-4.37,17.97-6.41,32.94-6.41,9.51,0,19.9.77,30.89,1.59,1.92.14,3.85.29,5.8.43,2.54-3.85,4.8-7.57,7.15-11.47-2.75,2.77-6.05,5.21-10.21,5.21-4.7-.1-7.88-2.45-8.85-4.59-.58-1.21-.82-2.61-.74-4.17-3.79,4.66-8.07,8.67-13.48,8.67-.12,0-.24,0-.36,0-3.48-.08-6.32-1.57-7.77-4.08-.83-1.42-1.16-3.12-.99-5.09-3.95,4.98-8.43,9.26-14.12,9.26-4.62-.1-7.77-2.45-8.75-4.59-1.35-2.98-.46-6.29.52-8.53,2.04-4.84,7.17-12.71,9.93-16.93l.38-.58h-5.23c-1.86,2.88-6.31,9.22-8.12,11.8h.24l-.59.8c-.79,1.06-1.57,2.14-2.34,3.22-5.26,7.29-10.69,14.83-18.26,14.83-4.62-.1-7.77-2.45-8.75-4.59-1.28-2.7-.72-6.4,1.67-10.99,3.38-6.23,7.05-11.98,9.47-15.79,1.03-1.61,1.84-2.88,2.35-3.75l.14-.25h13.93l-3.9,6.24c-3.68,5.87-6.33,10.12-9.63,15.63l-.1.16c-2.15,3.44-2.97,5.79-2.43,7,.21.47.65.76,1.36.88.13.02.28.03.42.03,3.26,0,7.36-5.46,11.32-10.73.46-.62.93-1.24,1.39-1.84l-.17-.05.44-.57c2.5-3.28,9.58-14.32,12.25-22.18l.12-.34h8.68l-.81.85c-1.52,1.58-3.06,3.26-4.21,4.95h16.79l-.5.77c-3.18,4.88-9.94,16.43-12.52,20.99l-.12.19c-.76,1.29-3.09,5.22-2.25,7.04.22.48.68.78,1.39.9.13.02.27.03.41.03,3.12,0,7.15-5.29,11.05-10.4.72-.94,1.44-1.89,2.16-2.8l.04-.06c7.45-12.24,14.95-24.01,22.89-36.48l4.34-6.81h13.61l-30.32,48.5c-2.65,4.36-2.72,6.26-2.31,7.09.26.53.83.83,1.73.92.05,0,.17,0,.17,0,3.28,0,9.16-8,11.67-11.42,3.14-5.67,6.52-10.97,8.75-14.48,1.03-1.61,1.84-2.89,2.35-3.76l.14-.25h13.94l-.49.77c-5.47,8.61-8.64,13.74-13.05,21.1-1.51,2.43-2.88,5.55-2.2,7.07.23.52.7.83,1.44.96.11.02.23.03.35.03,3.08,0,8.66-6.33,15.31-17.36,1.95-3.3,3.81-6.21,5.31-8.55,1.03-1.62,1.85-2.89,2.35-3.77l.14-.25h13.88l-.41.74c-12.59,22.7-13.35,23.97-24.35,42.02,8.89.74,16.63,1.36,24.16,1.36,6.83,0,12.95-.51,19.25-1.61,28.67-5.13,39.19-25.49,39.48-41.37.19-13.28-9.19-27.6-26.97-27.98-.25,0-.5,0-.75,0-15.4,0-23.4,9.24-24.32,17.82-.83,7.79,3.97,13.98,12.24,15.77,1.34.28,2.67.43,3.94.43,4.72,0,8.87-2,11.7-5.64,3.29-4.23,4.43-10.05,3.04-15.57l-.35-1.39,12.18,9.29-.09.32c-2.64,9.73-12.24,16.27-23.89,16.27-2.55,0-5.11-.33-7.59-.97-8-2.08-15.47-8.89-14.13-19.43.69-5.4,3.66-10.39,8.37-14.06,5.33-4.16,12.55-6.36,20.88-6.36h.55c23.51.2,37.13,15.89,38,30.55,1.11,17.8-14.42,38.65-51.6,45.08-10.97,1.89-20.83,2.15-29.85,2.15h0c-3.71,0-7.52-.05-11.55-.1-1.88-.02-3.8-.05-5.78-.07-19.25,28.18-37.88,40.21-62.27,40.21ZM249.51,109.58c-.76,3.45-.12,6.66,1.87,9.29,3.03,4.02,8.88,6.38,16.9,6.81.71.04,1.4.05,2.1.05,22.37,0,37.99-18.81,50.32-37.46-2.55-.03-5.07-.05-7.55-.05-17.3,0-38.79.84-51.5,7.39-4.38,2.29-7.87,5.4-10.07,9-.34,1.71-1.03,3.38-2.06,4.97ZM203.87,86.15c-16.65,0-37.98,9.71-41.97,23.63-.95,3.48-.52,6.96,1.17,9.32,1.38,1.93,3.54,3.04,6.26,3.22.2.01.41.02.62.02,11.85,0,25.24-19.16,35.69-36.15-.58-.02-1.17-.04-1.76-.04ZM188.54,44.06c-.13,0-.26.01-.4.03-5.61.95-18.04,21.45-18.3,26.97-.02.42.02.93.32,1.01.17.05.34.07.53.07,4.96,0,14.97-16.06,18.73-22.11l.78-1.25c.58-1.6.56-3.02-.06-3.91-.37-.54-.94-.83-1.6-.83ZM225.54,44.06c-.13,0-.27.01-.41.03-5.61.95-17.98,21.42-18.23,26.93-.02.43.03.96.35,1.05.16.04.32.06.49.06,3.57,0,10.82-8.52,19.88-23.38.55-1.39.52-2.71-.11-3.64-.45-.66-1.19-1.06-1.98-1.06Z"/>
    <path class="st1" d="M394.75,11.28c.18,0,.36,0,.55,0,21.86.19,36.58,14.48,37.51,30.08,1.14,18.31-15.54,38.39-51.19,44.56-10.22,1.76-19.57,2.14-29.77,2.14-5.52,0-11.29-.11-17.58-.18-17.94,26.33-36.06,40.21-62,40.21-1.48,0-2.99-.05-4.52-.14-12.31-.75-20.49-6.4-23.89-13.53-3.17,2.02-7.12,3.26-11.44,3.26-.1,0-.2,0-.3,0-.1,0-.19,0-.29,0-13.31,0-22.31-12.68-9.55-22.05l11.19,4.3c-9.64,1.68-11.19,14.76-1.35,16.25.09,0,.17,0,.25,0,9.31,0,10.91-10.24,7.83-16.16-3.42-6.82-12.12-11.68-21.35-13.36-13.27,21.17-29.97,39.62-46.12,39.62-.24,0-.48,0-.72-.01-11.92-.37-14.92-9.62-12.75-17.19,4.87-16.63,27.88-26.25,49.01-26.25,3.73-6.17,6.32-10.37,10.47-17.47-2.99,3.78-7.91,10.59-14.47,10.59-.25,0-.51-.01-.77-.03-2.71-.21-4.51-1.46-5.51-3.37-2.51,2.06-5.22,3.37-8.25,3.37-.08,0-.16,0-.23,0-6.63-.09-9.95-4.86-7.98-10.46-3.69,4.77-8.54,10.49-14.35,10.49-.22,0-.45,0-.67-.03-8.6-.65-7.98-11.86-2.18-20.92,4.77-7.26,12.2-13.39,21.58-13.39.4,0,.81.01,1.22.03,2.28.19,5.18,1.4,5.8,3.74l2.18-3.74h12.85c-5.49,8.5-9.22,14.11-13.57,21.11-2.9,4.76-3.73,8.41-.1,8.78.07,0,.14.01.21.01.81,0,1.75-.43,2.76-1.14-.88-4.22.77-10.17,4.18-15.41,4.77-7.26,12.2-13.39,21.48-13.39.4,0,.8.01,1.21.03,2.38.19,5.28,1.4,5.8,3.74l2.28-3.74h12.43c-8.7,14.01-15.75,28.77-23.42,41.2,10.67.71,21.06,4.34,26.37,10.33,1.85-2.04,4.16-3.92,6.98-5.56,8.35-4.87,19.63-6.34,32.69-6.34,11.24,0,23.81,1.09,36.94,2.04,3.52-5.32,6.42-10.28,9.95-16.07-3.32,3.74-7.46,8.78-13.26,8.78-4.35-.09-7.46-2.24-8.39-4.3-.82-1.72-.86-3.72-.47-5.67-4.18,5.37-8.64,9.88-14.21,9.88-.11,0-.23,0-.34,0-3.83-.09-6.22-1.87-7.36-3.83-1.11-1.91-1.17-4.28-.63-6.69-4.36,5.76-8.96,10.61-14.91,10.61-4.35-.09-7.36-2.24-8.29-4.3-1.14-2.52-.62-5.51.52-8.13,2.28-5.42,8.6-14.85,10.78-18.22h-6.42c-1.97,3.08-7.56,11.02-8.81,12.8h.21c-6.11,8.22-11.81,17.84-20.21,17.84-4.35-.09-7.36-2.24-8.29-4.3-1.55-3.27.1-7.57,1.66-10.56,4.77-8.78,10.05-16.53,11.81-19.52h12.75c-5.6,8.97-8.81,14.01-13.06,21.11-.93,1.49-5.18,8.03-.83,8.78.17.03.34.04.51.04,4.04,0,8.89-7.26,13.55-13.35l-.17-.05c2.28-2.99,9.53-14.11,12.33-22.33h7.15c-1.97,2.05-3.63,3.92-4.77,5.79h16.79c-3.11,4.76-9.74,16.07-12.54,21.02-.93,1.59-4.97,8.13-.62,8.87.16.03.33.04.49.04,3.96,0,8.83-7.3,13.6-13.4h.01c8.77-14.41,17.66-28.26,27.13-43.16h12.44l-29.84,47.73c-2.9,4.76-3.83,8.41-.21,8.78.07,0,.14.01.22.01,3.44,0,8.89-7.29,12.07-11.62,4.58-8.26,9.45-15.43,11.13-18.28h12.75c-5.7,8.97-8.81,14.01-13.06,21.11-.93,1.49-4.77,8.03-.41,8.78.14.02.28.04.43.04,4.94,0,13.22-13.42,15.73-17.6,3.32-5.6,6.42-10.18,7.67-12.33h12.75c-12.75,22.98-13.26,23.82-24.77,42.69,9.29.77,17.24,1.43,25.01,1.43,6.35,0,12.58-.44,19.34-1.62,28.19-5.04,39.58-25.04,39.89-41.85.21-14.2-9.95-28.12-27.46-28.49-.26,0-.51,0-.77,0-27.63,0-33.13,30.04-12.19,34.57,1.41.3,2.76.44,4.05.44,11.63,0,17.84-11.48,15.23-21.83l10.78,8.22c-2.7,9.96-12.61,15.9-23.41,15.9-2.47,0-4.98-.31-7.47-.95-22.88-5.95-17.27-38.86,15-38.86M207.75,72.64c5.65,0,17.02-18.22,20.31-23.62,1.34-3.37-.51-5.46-2.51-5.46-.16,0-.33.01-.49.04-6.63,1.12-22.18,27.84-17.93,28.96.2.06.41.08.62.08M170.69,72.65c5.63,0,16.58-18.25,19.96-23.63,1.25-3.37-.17-5.46-2.11-5.46-.16,0-.32.01-.48.04-6.63,1.12-22.17,27.84-18.03,28.96.21.06.43.09.66.09M169.95,122.84c11.44,0,24.15-16.84,36.55-37.1-.87-.05-1.74-.08-2.63-.08-17.31,0-38.5,10.22-42.45,24-1.66,6.07.62,12.7,7.88,13.17.22.01.43.02.65.02M270.37,126.24c22.58,0,38.28-18.7,51.24-38.45-2.87-.04-5.7-.07-8.47-.07-21.66,0-40.16,1.48-51.73,7.45-4.67,2.43-8.18,5.73-10.32,9.26-.33,1.74-1.04,3.41-2.05,4.95-1.85,8.08,3.68,15.96,19.21,16.8.72.04,1.42.05,2.12.05M394.75,10.28c-8.44,0-15.77,2.23-21.18,6.46-4.81,3.76-7.85,8.87-8.56,14.39-.56,4.36.44,8.68,2.8,12.17,2.56,3.78,6.61,6.48,11.69,7.8,2.53.65,5.13.99,7.72.99,11.88,0,21.68-6.69,24.37-16.64l.18-.65-.53-.41-10.78-8.22-2.28-1.74.7,2.78c1.36,5.37.25,11.03-2.95,15.14-2.73,3.51-6.75,5.44-11.31,5.44-1.24,0-2.53-.14-3.84-.42-8-1.73-12.65-7.71-11.84-15.22.9-8.37,8.73-17.37,23.82-17.37.25,0,.5,0,.75,0,17.45.37,26.67,14.43,26.48,27.48-.29,15.68-10.7,35.8-39.07,40.88-6.27,1.09-12.36,1.6-19.16,1.6-7.29,0-14.77-.59-23.31-1.29,10.61-17.4,11.51-18.92,23.94-41.34l.82-1.49h-15.02l-.29.5c-.5.86-1.31,2.14-2.34,3.75-1.5,2.34-3.36,5.26-5.32,8.57-6.46,10.71-12.02,17.11-14.87,17.11-.09,0-.18,0-.26-.02-.75-.13-.97-.44-1.07-.67-.49-1.09.38-3.74,2.16-6.6,4.41-7.37,7.58-12.5,13.05-21.1l.98-1.54h-15.14l-.29.49c-.51.86-1.32,2.13-2.34,3.74-2.23,3.5-5.6,8.79-8.77,14.51-2.28,3.11-8.21,11.16-11.23,11.16-.04,0-.08,0-.12,0-1.05-.11-1.26-.52-1.32-.65-.23-.47-.48-2.07,2.29-6.62l29.84-47.72.96-1.53h-14.79l-.29.46-4.2,6.61c-7.93,12.45-15.42,24.22-22.86,36.44l-.02.03c-.72.92-1.44,1.86-2.16,2.81-3.65,4.78-7.78,10.2-10.65,10.2-.11,0-.23,0-.33-.03-.71-.12-.92-.41-1.01-.61-.33-.72-.22-2.45,2.22-6.58l.11-.19c2.58-4.57,9.33-16.11,12.51-20.98l1.01-1.55h-16.74c1.05-1.39,2.33-2.78,3.59-4.1l1.62-1.69h-10.21l-.23.68c-2.66,7.81-9.69,18.78-12.18,22.04l-.88,1.15.17.05c-.32.42-.64.85-.96,1.27-3.71,4.94-7.91,10.53-10.92,10.53-.12,0-.24,0-.35-.03-.77-.13-.92-.46-.97-.59-.26-.59-.3-2.22,2.4-6.53l.09-.15c3.31-5.53,5.96-9.77,9.64-15.64,1.05-1.67,2.17-3.48,3.42-5.47l.95-1.53h-15.12l-.29.49c-.51.86-1.32,2.13-2.34,3.74-2.2,3.46-5.42,8.51-8.53,14.07,3.06-5.58,6.25-11.24,9.68-16.77l.95-1.53h-14.79l-.29.48-1.34,2.2c-1.29-1.62-3.64-2.5-5.81-2.67-.44-.03-.87-.04-1.29-.04-7.36,0-14.52,3.87-20.07,10.75.49-.75.99-1.52,1.49-2.3,1.37-2.11,2.84-4.37,4.46-6.88l1-1.54h-15.26l-.29.5-1.27,2.19c-1.32-1.62-3.64-2.51-5.76-2.68-.45-.03-.88-.04-1.3-.04-4.97,0-14.49,1.8-22.41,13.84-4.26,6.65-5.65,14.04-3.47,18.41,1.21,2.43,3.43,3.83,6.4,4.06.25.02.5.03.75.03,5.21,0,9.68-4.26,12.79-7.94.07,1.53.54,2.95,1.39,4.17,1.65,2.37,4.54,3.7,8.13,3.75.08,0,.16,0,.25,0,2.72,0,5.34-.95,7.99-2.91,1.28,1.72,3.22,2.71,5.69,2.9.28.02.56.03.84.03,3.26,0,6.09-1.49,8.5-3.48-1.08,1.8-2.13,3.52-3.24,5.35l-1.83,3.01c-10.78.08-21.59,2.56-30.49,6.99-10.01,4.99-16.55,11.89-18.92,19.97-1.36,4.73-.69,9.6,1.8,13.02,1.73,2.37,5.19,5.24,11.87,5.45.25,0,.5.01.75.01,9.9,0,26-6.87,46.6-39.51,9.34,1.86,16.96,6.69,19.97,12.7,1.79,3.44,1.75,8.12-.09,11.15-1.42,2.33-3.79,3.57-6.85,3.57h-.17c-3.57-.57-5.72-2.87-5.75-6.17-.04-3.4,2.42-7.27,7.19-8.1l3.56-.62-3.38-1.3-11.19-4.3-.51-.2-.44.32c-5.46,4.01-7.66,9.12-6.05,14.04,1.89,5.78,8.55,9.81,16.19,9.81h.31s.29,0,.29,0c3.95,0,7.75-.98,11.04-2.85,4.13,7.57,13.09,12.44,24.23,13.12,1.55.09,3.09.14,4.58.14,24.5,0,43.23-12.03,62.53-40.21,1.88.02,3.71.04,5.51.07,4.03.05,7.84.1,11.55.1,9.05,0,18.94-.26,29.94-2.15,16.81-2.91,30.61-9.13,39.91-17.99,8.42-8.02,12.72-17.83,12.11-27.62-.89-14.88-14.69-30.81-38.5-31.02-.18,0-.37,0-.55,0h0ZM207.45,71.61c-.15-.38-.09-2.05,1.72-6.04,3.93-8.72,12.28-20.34,16.06-20.98.11-.02.22-.03.32-.03h0c.62,0,1.21.31,1.57.84.52.77.54,1.9.05,3.17-8.82,14.45-16.08,23.07-19.41,23.07-.11,0-.21-.01-.3-.03h0ZM170.38,71.62c-.14-.42-.03-2.23,1.99-6.54,4.08-8.71,12.2-19.87,15.86-20.49.11-.02.21-.03.32-.03h0c.5,0,.91.21,1.19.62.52.74.52,1.98.02,3.4-.22.35-.47.76-.75,1.2-3.37,5.41-13.62,21.87-18.31,21.87-.11,0-.21-.01-.31-.03h0ZM271.7,46.38h4.03c-2.8,4.28-7.83,12.01-9.85,16.83-1.01,2.33-1.93,5.78-.51,8.93,1.07,2.36,4.32,4.78,9.18,4.88,5.47,0,9.8-3.73,13.61-8.31.07,1.46.43,2.76,1.09,3.89,1.54,2.66,4.53,4.24,8.2,4.33.12,0,.24,0,.37,0,5.19,0,9.34-3.51,13-7.8.08,1.1.34,2.11.78,3.02,1.03,2.26,4.37,4.76,9.27,4.87,3.14,0,5.78-1.3,8.07-3.09-1.7,2.79-3.4,5.53-5.24,8.33-1.85-.13-3.68-.27-5.51-.41-11-.82-21.4-1.59-30.93-1.59-15.07,0-25.62,2.06-33.19,6.48-2.46,1.43-4.63,3.1-6.48,4.97-5.14-5.2-14.19-8.76-24.67-9.74,3.37-5.57,6.6-11.5,10-17.75.6-1.11,1.21-2.22,1.82-3.34-2.39,4.67-2.92,8.45-1.58,11.27,1.06,2.34,4.31,4.76,9.17,4.87,7.85,0,13.36-7.64,18.69-15.03.78-1.08,1.56-2.16,2.34-3.21l1.19-1.6h-.28c1.98-2.83,5.67-8.09,7.43-10.8h0ZM194.49,70.54s-.08,0-.12,0c-1.08-.11-1.29-.54-1.36-.68-.24-.49-.51-2.1,2.22-6.59,1.17-1.88,2.3-3.67,3.43-5.45-2.09,4.26-3.02,8.64-2.52,12.11-.81.5-1.34.61-1.66.61h0ZM169.95,121.84c-.2,0-.39,0-.59-.02-2.59-.17-4.57-1.18-5.88-3.01-1.59-2.23-2-5.56-1.09-8.9,1.76-6.16,7.35-12.04,15.72-16.54,7.94-4.27,17.33-6.71,25.76-6.71.3,0,.59,0,.88,0-10.31,16.69-23.38,35.18-34.81,35.18h0ZM252.04,104.8c2.16-3.49,5.56-6.51,9.83-8.74,9.84-5.07,25.66-7.33,51.27-7.33,2.11,0,4.29.01,6.63.04-12.18,18.29-27.57,36.47-49.4,36.47-.68,0-1.38-.02-2.07-.05-7.87-.43-13.59-2.72-16.53-6.62-1.88-2.49-2.5-5.53-1.8-8.8,1.02-1.59,1.71-3.26,2.06-4.98h0Z"/>
  </g>
</svg>